# xmcd CD database file
#
# Track frame offsets:
#	150
#	20316
#	51885
#	72002
#
# Disc length: 1375 seconds
#
# Revision: 3
# Processed by: cddbd v1.5.1PL0 Copyright (c) Steve Scherf et al.
# Submitted via: CDex 1.51
#
DISCID=2a055d04
DTITLE=UNDER17 - くじびきアンバランス
DYEAR=2004
DGENRE=Anime
TTITLE0=くじびきアンバランス
TTITLE1=かがやきサイリューム
TTITLE2=くじびきアンバランス (Off Vocal)
TTITLE3=かがやきサイリューム (Off Vocal)
EXTD=YEAR: 2004
EXTT0=
EXTT1=
EXTT2=
EXTT3=
PLAYORDER=
